<svg xmlns="http://www.w3.org/2000/svg" viewBox="0 0 120 120" fill="none">
  <rect width="120" height="120" rx="24" fill="#FF0000"/>
  <path d="M87.32 46.64C86.66 44.2 84.75 42.29 82.31 41.63C77.9 40.45 60 40.45 60 40.45C60 40.45 42.1 40.45 37.69 41.63C35.25 42.29 33.34 44.2 32.68 46.64C31.5 51.05 31.5 60.25 31.5 60.25C31.5 60.25 31.5 69.45 32.68 73.86C33.34 76.3 35.25 78.21 37.69 78.87C42.1 80.05 60 80.05 60 80.05C60 80.05 77.9 80.05 82.31 78.87C84.75 78.21 86.66 76.3 87.32 73.86C88.5 69.45 88.5 60.25 88.5 60.25C88.5 60.25 88.5 51.05 87.32 46.64Z" fill="white"/>
  <path d="M54.27 69.25V51.25L69.88 60.25L54.27 69.25Z" fill="#FF0000"/>
</svg>
